<svg width="1440" height="816" viewBox="0 0 1440 816" fill="none" xmlns="http://www.w3.org/2000/svg">
<g clip-path="url(#clip0_7_241)" filter="url(#filter0_n_7_241)">
<rect width="1440" height="816" fill="black"/>
<g clip-path="url(#clip1_7_241)">
<path d="M1044.07 457.561C1044.07 457.561 1058.01 443.023 1073.57 470.54C1087.23 494.714 1076.55 513.513 1076.55 513.513C1060.99 550.109 996.337 496.497 990.203 556.013C990.51 557.796 990.705 560.052 991.012 561.862C994.469 582.805 1000.99 610.433 1026.31 619.345C1033.39 621.824 1040.72 622.799 1047.92 621.629C1059.54 619.707 1070.25 613.107 1076.13 603.304C1078.23 599.822 1083.58 600.88 1084.22 604.919C1084.44 606.228 1084.08 607.593 1083.19 608.567C1076.3 615.948 1064.76 621.629 1055.31 623.467L1054.11 623.662C1031.66 627.366 1007.13 623.607 990.426 611.77C976.904 602.162 962.879 586.203 959.784 567.348L958.418 559.105C956.02 540.751 964.803 519.056 973.893 505.771C978.632 498.864 992.991 484.326 1009.08 485.468C1018.61 485.217 1027.95 492.876 1033.06 498.752C1040.28 507.08 1046.52 509.726 1055.11 510.867C1065.6 512.26 1076.33 508.25 1077.36 497.75C1077.42 497.137 1077.44 496.524 1077.44 495.884C1077.44 493.712 1077.03 489.645 1076.19 485.663C1074.94 479.814 1069.92 475.553 1063.95 475.163C1053.38 474.467 1038.52 467.671 1044.1 457.478L1044.07 457.561Z" fill="white"/>
<path d="M1101.65 449.318C1093.62 438.623 1084.89 433.916 1075.52 433.916C1065.37 433.916 1055.2 439.765 1044.57 450.543C1042.79 452.353 1039.75 451.434 1039.25 448.928C1038.35 444.444 1038.02 440.183 1038.02 435.922C1038.02 421.216 1043.37 409.157 1054.11 395.789L1190.76 225.176C1198.12 215.818 1202.13 208.438 1202.13 202.422C1202.13 192.229 1190.59 186.882 1171.55 185.239C1169.93 185.099 1168.65 183.762 1168.65 182.119C1168.65 180.393 1170.04 179 1171.77 179H1288.09C1289.82 179 1291.21 180.393 1291.21 182.119V185.016H1287.87C1251.71 185.016 1222.9 196.379 1198.79 225.176L1061.47 397.126C1050.09 411.162 1042.04 425.227 1042.04 443.302V449.318C1049.4 431.243 1062.14 420.548 1075.52 413.864C1081.54 411.19 1088.26 409.853 1094.29 409.853C1109.7 409.853 1125.09 417.206 1138.51 434.613C1178.01 486.136 1220.9 541.67 1262.41 594.531C1282.51 618.621 1301.25 635.332 1316 636H1309.98C1277.86 636 1241.08 626.67 1219.64 601.967C1219.59 601.911 1219.53 601.827 1219.47 601.772L1101.65 449.318Z" fill="white"/>
<path d="M1041.64 226.903C1041.64 226.903 1023.33 223.227 1016.83 217.295C1002.33 204.121 999.822 179 999.822 179C999.822 179 997.313 204.121 982.815 217.322C976.29 223.255 958 226.931 958 226.931C958 226.931 976.318 230.607 982.815 236.539C997.313 249.74 999.822 274.862 999.822 274.862C999.822 274.862 1002.33 249.74 1016.83 236.539C1023.35 230.607 1041.64 226.931 1041.64 226.931V226.903ZM1014.85 234.395C1005.68 242.75 1001.61 255.06 999.795 263.916C997.982 255.06 993.912 242.75 984.766 234.395C980.835 230.83 976.318 228.351 971.272 226.931C976.318 225.51 980.835 223.004 984.766 219.439C993.939 211.084 998.01 198.774 999.822 189.917C1001.63 198.774 1005.71 211.084 1014.88 219.439C1018.81 223.004 1023.3 225.483 1028.35 226.931C1023.3 228.351 1018.78 230.83 1014.88 234.395H1014.85Z" fill="white"/>
</g>
<path d="M875 714.604C875.749 714.635 879.389 714.848 880.765 715.017C894.574 716.728 897.159 725.24 899.712 739.528L900.905 836L902.129 739.589C902.19 738.642 903.704 716.392 921.137 715.995C939.687 715.567 976.633 714.589 977 714.589C976.771 714.589 926.765 713.32 921.137 713.183C903.704 712.785 901.486 690.597 901.425 689.71L900.921 681L900.278 689.71C900.217 690.658 898.153 713.595 880.719 713.993C879.939 714.008 875 714.589 875 714.589V714.604ZM900.936 732.636C899.284 726.34 895.446 717.569 886.714 714.619C895.446 711.67 899.284 702.898 900.936 696.602C902.587 702.898 906.426 711.67 915.173 714.619C906.441 717.569 902.603 726.34 900.951 732.636H900.936Z" fill="white" fill-opacity="0.01"/>
<path d="M1071 813.477C1071.37 813.492 1073.15 813.597 1073.83 813.679C1080.6 814.518 1081.86 818.692 1083.11 825.698L1083.7 873L1084.3 825.728C1084.33 825.263 1085.07 814.353 1093.62 814.159C1102.71 813.949 1120.82 813.469 1121 813.469C1120.89 813.469 1096.37 812.847 1093.62 812.78C1085.07 812.585 1083.98 801.706 1083.95 801.271L1083.71 797L1083.39 801.271C1083.36 801.735 1082.35 812.982 1073.8 813.177C1073.42 813.185 1071 813.469 1071 813.469V813.477ZM1083.71 822.318C1082.9 819.231 1081.02 814.93 1076.74 813.484C1081.02 812.038 1082.9 807.737 1083.71 804.65C1084.52 807.737 1086.4 812.038 1090.69 813.484C1086.41 814.93 1084.53 819.231 1083.72 822.318H1083.71Z" fill="white" fill-opacity="0.01"/>
<path d="M884.227 920.189C884.522 920.192 945.216 922.371 952.045 922.621C973.209 923.318 974.775 950.396 974.823 951.456L975.043 1068.71L977.736 951.576C977.808 950.428 979.951 923.42 1001.13 923.145C1023.65 922.885 1068.57 922.157 1069.01 922.162C1068.57 922.157 1023.68 920.5 1001.16 919.73C979.998 919.033 978.432 891.955 978.384 890.895L978.194 773.639L975.47 890.775C975.399 891.923 973.256 918.961 952.081 919.206C929.552 919.466 884.669 920.194 884.227 920.189ZM976.823 899.27C978.743 906.946 983.281 917.654 993.872 921.36C983.234 924.839 978.439 935.447 976.355 943.08C974.434 935.404 969.896 924.696 959.306 920.991C969.944 917.512 974.739 906.904 976.823 899.27Z" fill="white" fill-opacity="0.01"/>
<path d="M751.091 791.505C751.091 791.505 754.328 792.19 755.474 793.256C758.023 795.628 758.415 800.09 758.415 800.09C758.415 800.09 758.908 795.637 761.502 793.321C762.67 792.279 765.921 791.664 765.921 791.664C765.921 791.664 762.684 790.979 761.539 789.912C758.995 787.541 758.597 783.079 758.597 783.079C758.597 783.079 758.104 787.532 755.51 789.848C754.342 790.89 751.091 791.505 751.091 791.505ZM755.854 790.231C757.497 788.764 758.237 786.586 758.576 785.019C758.882 786.593 759.575 788.786 761.186 790.287C761.876 790.929 762.674 791.373 763.562 791.638C762.664 791.88 761.861 792.316 761.158 792.943C759.515 794.41 758.775 796.588 758.436 798.155C758.13 796.581 757.437 794.388 755.826 792.887C755.136 792.245 754.343 791.796 753.45 791.53C754.348 791.284 755.151 790.858 755.854 790.231Z" fill="white" fill-opacity="0.01"/>
<path d="M1367.09 689.505C1367.09 689.505 1370.33 690.19 1371.47 691.256C1374.02 693.628 1374.42 698.09 1374.42 698.09C1374.42 698.09 1374.91 693.637 1377.5 691.321C1378.67 690.279 1381.92 689.664 1381.92 689.664C1381.92 689.664 1378.68 688.979 1377.54 687.912C1374.99 685.541 1374.6 681.079 1374.6 681.079C1374.6 681.079 1374.1 685.532 1371.51 687.848C1370.34 688.89 1367.09 689.505 1367.09 689.505ZM1371.85 688.231C1373.5 686.764 1374.24 684.586 1374.58 683.019C1374.88 684.593 1375.57 686.786 1377.19 688.287C1377.88 688.929 1378.67 689.373 1379.56 689.638C1378.66 689.88 1377.86 690.316 1377.16 690.943C1375.51 692.41 1374.78 694.588 1374.44 696.155C1374.13 694.581 1373.44 692.388 1371.83 690.887C1371.14 690.245 1370.34 689.796 1369.45 689.53C1370.35 689.284 1371.15 688.858 1371.85 688.231Z" fill="white" fill-opacity="0.01"/>
<path d="M1382.09 534.505C1382.09 534.505 1385.33 535.19 1386.47 536.256C1389.02 538.628 1389.42 543.09 1389.42 543.09C1389.42 543.09 1389.91 538.637 1392.5 536.321C1393.67 535.279 1396.92 534.664 1396.92 534.664C1396.92 534.664 1393.68 533.979 1392.54 532.912C1389.99 530.541 1389.6 526.079 1389.6 526.079C1389.6 526.079 1389.1 530.532 1386.51 532.848C1385.34 533.89 1382.09 534.505 1382.09 534.505ZM1386.85 533.231C1388.5 531.764 1389.24 529.586 1389.58 528.019C1389.88 529.593 1390.57 531.786 1392.19 533.287C1392.88 533.929 1393.67 534.373 1394.56 534.638C1393.66 534.88 1392.86 535.316 1392.16 535.943C1390.51 537.41 1389.78 539.588 1389.44 541.155C1389.13 539.581 1388.44 537.388 1386.83 535.887C1386.14 535.245 1385.34 534.796 1384.45 534.53C1385.35 534.284 1386.15 533.858 1386.85 533.231Z" fill="white" fill-opacity="0.01"/>
<path d="M1124.23 356.735C1125.02 356.767 1128.84 356.992 1130.29 357.169C1144.82 358.971 1147.54 367.931 1150.22 382.973L1151.48 484.532L1152.77 383.037C1152.83 382.04 1154.42 358.617 1172.76 358.199C1192.28 357.748 1231.14 356.719 1231.53 356.719C1231.29 356.719 1178.68 355.383 1172.76 355.239C1154.42 354.82 1152.09 331.462 1152.03 330.529L1151.5 321.359L1150.82 330.529C1150.76 331.526 1148.58 355.673 1130.24 356.091C1129.42 356.107 1124.23 356.719 1124.23 356.719V356.735ZM1151.51 375.718C1149.77 369.09 1145.74 359.856 1136.55 356.751C1145.74 353.646 1149.77 344.412 1151.51 337.784C1153.25 344.412 1157.29 353.646 1166.49 356.751C1157.3 359.856 1153.26 369.09 1151.53 375.718H1151.51Z" fill="white" fill-opacity="0.01"/>
<path d="M1330.14 461.061C1330.53 461.076 1332.43 461.188 1333.14 461.275C1340.33 462.163 1341.68 466.58 1343.01 473.995L1343.63 524.058L1344.26 474.027C1344.3 473.535 1345.08 461.988 1354.16 461.782C1363.81 461.56 1383.04 461.053 1383.23 461.053C1383.11 461.053 1357.09 460.394 1354.16 460.323C1345.08 460.117 1343.93 448.602 1343.9 448.142L1343.64 443.622L1343.3 448.142C1343.27 448.634 1342.19 460.537 1333.12 460.743C1332.72 460.751 1330.14 461.053 1330.14 461.053V461.061ZM1343.64 470.418C1342.78 467.151 1340.79 462.599 1336.24 461.069C1340.79 459.538 1342.78 454.986 1343.64 451.719C1344.5 454.986 1346.5 459.538 1351.05 461.069C1346.51 462.599 1344.51 467.151 1343.65 470.418H1343.64Z" fill="white" fill-opacity="0.01"/>
<path d="M977.834 366.146C978.224 366.162 980.118 366.273 980.834 366.36C988.021 367.248 989.366 371.665 990.696 379.08L991.316 429.144L991.953 379.112C991.985 378.62 992.773 367.074 1001.85 366.867C1011.5 366.645 1030.73 366.138 1030.92 366.138C1030.8 366.138 1004.78 365.48 1001.85 365.408C992.773 365.202 991.619 353.687 991.587 353.228L991.324 348.707L990.99 353.228C990.958 353.719 989.884 365.622 980.81 365.829C980.404 365.837 977.834 366.138 977.834 366.138V366.146ZM991.332 375.503C990.473 372.236 988.475 367.684 983.93 366.154C988.475 364.623 990.473 360.071 991.332 356.804C992.192 360.071 994.19 364.623 998.742 366.154C994.198 367.684 992.2 372.236 991.34 375.503H991.332Z" fill="white" fill-opacity="0.01"/>
<path d="M969.79 61.1857C969.388 61.2022 967.436 61.3176 966.698 61.4083C959.293 62.3321 957.908 66.9259 956.538 74.6372L955.898 126.703L955.242 74.6702C955.21 74.1589 954.398 62.1506 945.049 61.9362C935.102 61.7052 915.29 61.1774 915.093 61.1774C915.216 61.1774 942.032 60.4929 945.049 60.4186C954.398 60.2042 955.587 48.2289 955.62 47.7506L955.89 43.0496L956.235 47.7506C956.267 48.2619 957.375 60.6413 966.723 60.8558C967.141 60.864 969.79 61.1774 969.79 61.1774V61.1857ZM955.882 70.9176C956.768 67.5197 958.826 62.7857 963.508 61.1939C958.826 59.6022 956.768 54.8681 955.882 51.4702C954.996 54.8681 952.938 59.6022 948.247 61.1939C952.93 62.7857 954.988 67.5197 955.874 70.9176H955.882Z" fill="white" fill-opacity="0.01"/>
<path d="M644.828 447.258C644.248 447.281 641.436 447.448 640.372 447.579C629.7 448.911 627.703 455.537 625.729 466.659L624.807 541.754L623.862 466.707C623.815 465.969 622.645 448.649 609.172 448.34C594.836 448.007 566.284 447.246 566 447.246C566.177 447.246 604.823 446.258 609.172 446.151C622.645 445.842 624.358 428.57 624.406 427.88L624.796 421.1L625.292 427.88C625.339 428.618 626.935 446.473 640.408 446.782C641.01 446.794 644.828 447.246 644.828 447.246V447.258ZM624.784 461.294C626.06 456.393 629.027 449.565 635.775 447.27C629.027 444.974 626.06 438.146 624.784 433.245C623.507 438.146 620.541 444.974 613.781 447.27C620.529 449.565 623.496 456.393 624.772 461.294H624.784Z" fill="white" fill-opacity="0.01"/>
<path d="M961.809 -18.7921C962.119 -18.7888 1026.02 -16.4944 1033.21 -16.2316C1055.49 -15.4976 1057.14 13.0114 1057.19 14.128L1057.43 137.583L1060.26 14.2538C1060.34 13.0455 1062.59 -15.3908 1084.89 -15.6798C1108.61 -15.9536 1155.89 -16.7198 1156.36 -16.7148C1155.89 -16.7198 1108.63 -18.4645 1084.93 -19.2757C1062.64 -20.0097 1060.99 -48.5186 1060.94 -49.6352L1060.74 -173.09L1057.88 -49.761C1057.8 -48.5527 1055.54 -20.0855 1033.25 -19.8275C1009.53 -19.5537 962.274 -18.7872 961.809 -18.7921ZM1059.3 -40.8171C1061.32 -32.7348 1066.1 -21.4609 1077.25 -17.5595C1066.05 -13.8968 1061 -2.72775 1058.81 5.30949C1056.78 -2.77277 1052.01 -14.0467 1040.86 -17.9481C1052.06 -21.6108 1057.11 -32.7798 1059.3 -40.8171Z" fill="white" fill-opacity="0.01"/>
<path d="M1133.94 573.219C1134.25 573.222 1198.16 575.516 1205.35 575.779C1227.63 576.513 1229.28 605.022 1229.33 606.139L1229.56 729.593L1232.39 606.264C1232.47 605.056 1234.73 576.62 1257.02 576.331C1280.74 576.057 1328.03 575.291 1328.49 575.296C1328.03 575.291 1280.77 573.546 1257.06 572.735C1234.78 572.001 1233.13 543.492 1233.08 542.375L1232.88 418.921L1230.01 542.25C1229.93 543.458 1227.68 571.925 1205.38 572.183C1181.66 572.457 1134.41 573.224 1133.94 573.219ZM1231.43 551.194C1233.45 559.276 1238.23 570.55 1249.38 574.451C1238.18 578.114 1233.13 589.283 1230.94 597.32C1228.92 589.238 1224.14 577.964 1212.99 574.063C1224.19 570.4 1229.24 559.231 1231.43 551.194Z" fill="white" fill-opacity="0.01"/>
<path d="M767.141 450.956C767.451 450.959 831.353 453.253 838.543 453.516C860.826 454.25 862.475 482.759 862.525 483.876L862.757 607.33L865.593 484.001C865.668 482.793 867.925 454.357 890.218 454.068C913.938 453.794 961.225 453.028 961.69 453.033C961.225 453.028 913.965 451.283 890.257 450.472C867.974 449.738 866.325 421.229 866.275 420.112L866.074 296.658L863.207 419.987C863.132 421.195 860.875 449.662 838.581 449.92C814.862 450.194 767.606 450.961 767.141 450.956ZM864.631 428.931C866.653 437.013 871.431 448.287 882.581 452.188C871.381 455.851 866.332 467.02 864.138 475.057C862.116 466.975 857.338 455.701 846.188 451.8C857.388 448.137 862.437 436.968 864.631 428.931Z" fill="white" fill-opacity="0.01"/>
<path d="M790.699 152.823C790.902 152.826 832.752 154.328 837.461 154.5C852.054 154.981 853.134 173.652 853.166 174.383L853.318 255.234L855.176 174.465C855.225 173.674 856.703 155.051 871.303 154.862C886.837 154.682 917.806 154.181 918.11 154.184C917.806 154.181 886.855 153.038 871.328 152.507C856.735 152.026 855.655 133.355 855.622 132.624L855.491 51.7735L853.613 132.542C853.564 133.333 852.086 151.976 837.486 152.145C821.952 152.325 791.003 152.827 790.699 152.823ZM854.546 138.399C855.87 143.692 858.999 151.076 866.301 153.631C858.966 156.029 855.66 163.344 854.223 168.608C852.899 163.315 849.77 155.931 842.467 153.376C849.802 150.977 853.109 143.663 854.546 138.399Z" fill="white" fill-opacity="0.01"/>
<path d="M722.697 573.753C722.819 573.754 747.895 574.654 750.716 574.757C759.46 575.045 760.107 586.232 760.127 586.671L760.218 635.115L761.331 586.72C761.36 586.246 762.246 575.087 770.994 574.974C780.302 574.866 798.858 574.566 799.04 574.568C798.858 574.566 780.312 573.881 771.009 573.563C762.265 573.275 761.618 562.088 761.598 561.649L761.52 513.205L760.395 561.6C760.365 562.074 759.479 573.245 750.731 573.346C741.423 573.454 722.88 573.754 722.697 573.753ZM760.953 565.11C761.747 568.281 763.622 572.705 767.997 574.236C763.602 575.673 761.621 580.056 760.76 583.21C759.967 580.039 758.092 575.615 753.716 574.084C758.111 572.646 760.092 568.264 760.953 565.11Z" fill="white" fill-opacity="0.01"/>
<path d="M1186.13 182.746C1186.27 182.747 1215.95 183.813 1219.28 183.935C1229.63 184.275 1230.4 197.513 1230.42 198.032L1230.53 255.357L1231.84 198.09C1231.88 197.529 1232.93 184.325 1243.28 184.191C1254.29 184.064 1276.25 183.708 1276.47 183.71C1276.25 183.708 1254.31 182.898 1243.3 182.521C1232.95 182.18 1232.18 168.942 1232.16 168.424L1232.07 111.098L1230.74 168.365C1230.7 168.926 1229.65 182.145 1219.3 182.265C1208.29 182.392 1186.35 182.748 1186.13 182.746ZM1231.4 172.518C1232.34 176.271 1234.56 181.506 1239.73 183.318C1234.53 185.019 1232.19 190.205 1231.17 193.937C1230.23 190.184 1228.01 184.949 1222.83 183.137C1228.04 181.437 1230.38 176.25 1231.4 172.518Z" fill="white" fill-opacity="0.01"/>
<path d="M1005.95 679.841C1006.1 679.843 1035.77 680.908 1039.11 681.03C1049.45 681.371 1050.22 694.609 1050.24 695.128L1050.35 752.453L1051.67 695.186C1051.7 694.625 1052.75 681.421 1063.1 681.287C1074.12 681.159 1096.07 680.804 1096.29 680.806C1096.07 680.804 1074.13 679.994 1063.12 679.617C1052.77 679.276 1052.01 666.038 1051.98 665.52L1051.89 608.194L1050.56 665.461C1050.53 666.022 1049.48 679.241 1039.13 679.361C1028.11 679.488 1006.17 679.844 1005.95 679.841ZM1051.22 669.614C1052.16 673.367 1054.38 678.602 1059.56 680.414C1054.36 682.115 1052.01 687.301 1050.99 691.033C1050.05 687.28 1047.83 682.045 1042.66 680.233C1047.86 678.533 1050.2 673.346 1051.22 669.614Z" fill="white" fill-opacity="0.01"/>
<path d="M1134.17 110.003C1134.17 110.003 1144.34 112.155 1147.94 115.508C1155.96 122.961 1157.19 136.987 1157.19 136.987C1157.19 136.987 1158.74 122.991 1166.89 115.71C1170.56 112.435 1180.78 110.501 1180.78 110.501C1180.78 110.501 1170.61 108.349 1167.01 104.996C1159.01 97.5426 1157.76 83.5165 1157.76 83.5165C1157.76 83.5165 1156.21 97.5127 1148.06 104.794C1144.39 108.069 1134.17 110.003 1134.17 110.003ZM1149.14 105.996C1154.3 101.386 1156.63 94.5409 1157.69 89.6132C1158.66 94.5625 1160.83 101.455 1165.9 106.175C1168.07 108.193 1170.58 109.587 1173.37 110.422C1170.54 111.18 1168.02 112.553 1165.81 114.524C1160.65 119.134 1158.32 125.979 1157.25 130.907C1156.29 125.957 1154.11 119.065 1149.05 114.345C1146.88 112.327 1144.39 110.917 1141.58 110.082C1144.4 109.308 1146.93 107.967 1149.14 105.996Z" fill="white" fill-opacity="0.01"/>
<path d="M953.988 607.099C953.988 607.099 964.165 609.251 967.765 612.603C975.778 620.057 977.012 634.083 977.012 634.083C977.012 634.083 978.561 620.087 986.715 612.806C990.386 609.531 1000.61 607.597 1000.61 607.597C1000.61 607.597 990.429 605.445 986.829 602.092C978.832 594.639 977.583 580.612 977.583 580.612C977.583 580.612 976.033 594.609 967.879 601.89C964.209 605.165 953.988 607.099 953.988 607.099ZM968.961 603.092C974.126 598.482 976.451 591.637 977.517 586.709C978.478 591.658 980.657 598.551 985.723 603.271C987.889 605.289 990.4 606.683 993.19 607.518C990.367 608.276 987.842 609.648 985.633 611.62C980.468 616.23 978.143 623.075 977.077 628.003C976.116 623.053 973.937 616.161 968.871 611.441C966.705 609.423 964.21 608.013 961.404 607.178C964.227 606.404 966.752 605.063 968.961 603.092Z" fill="white" fill-opacity="0.01"/>
<path d="M1051.98 442.826C1051.98 442.826 1057.19 443.927 1059.03 445.643C1063.13 449.458 1063.76 456.636 1063.76 456.636C1063.76 456.636 1064.56 449.473 1068.73 445.747C1070.61 444.071 1075.84 443.081 1075.84 443.081C1075.84 443.081 1070.63 441.98 1068.79 440.264C1064.7 436.449 1064.06 429.271 1064.06 429.271C1064.06 429.271 1063.26 436.434 1059.09 440.16C1057.21 441.836 1051.98 442.826 1051.98 442.826ZM1059.64 440.776C1062.29 438.416 1063.48 434.913 1064.02 432.391C1064.51 434.924 1065.63 438.452 1068.22 440.867C1069.33 441.9 1070.62 442.613 1072.04 443.04C1070.6 443.428 1069.31 444.131 1068.18 445.14C1065.53 447.499 1064.34 451.002 1063.8 453.524C1063.31 450.991 1062.19 447.464 1059.6 445.048C1058.49 444.015 1057.21 443.294 1055.78 442.867C1057.22 442.47 1058.51 441.784 1059.64 440.776Z" fill="white" fill-opacity="0.01"/>
<path d="M699.67 347.911C699.67 347.911 704.879 349.013 706.721 350.728C710.822 354.543 711.453 361.722 711.453 361.722C711.453 361.722 712.246 354.558 716.419 350.832C718.298 349.156 723.529 348.166 723.529 348.166C723.529 348.166 718.32 347.065 716.478 345.349C712.385 341.534 711.746 334.356 711.746 334.356C711.746 334.356 710.953 341.519 706.78 345.246C704.901 346.922 699.67 347.911 699.67 347.911ZM707.333 345.861C709.976 343.501 711.167 339.998 711.712 337.476C712.204 340.009 713.319 343.537 715.911 345.952C717.02 346.985 718.305 347.699 719.733 348.126C718.288 348.514 716.996 349.216 715.866 350.225C713.222 352.585 712.032 356.088 711.487 358.61C710.995 356.077 709.88 352.549 707.287 350.133C706.179 349.101 704.902 348.379 703.466 347.952C704.911 347.556 706.202 346.87 707.333 345.861Z" fill="white" fill-opacity="0.01"/>
<path d="M1328.82 320.527C1328.82 320.527 1338.91 322.661 1342.48 325.986C1350.43 333.379 1351.65 347.289 1351.65 347.289C1351.65 347.289 1353.19 333.408 1361.28 326.186C1364.92 322.938 1375.05 321.02 1375.05 321.02C1375.05 321.02 1364.96 318.886 1361.39 315.561C1353.46 308.168 1352.22 294.257 1352.22 294.257C1352.22 294.257 1350.68 308.139 1342.6 315.36C1338.96 318.608 1328.82 320.527 1328.82 320.527ZM1343.67 316.552C1348.79 311.98 1351.1 305.191 1352.15 300.304C1353.11 305.213 1355.27 312.049 1360.29 316.73C1362.44 318.731 1364.93 320.114 1367.7 320.942C1364.9 321.694 1362.39 323.055 1360.2 325.01C1355.08 329.583 1352.77 336.371 1351.72 341.259C1350.76 336.35 1348.6 329.514 1343.58 324.833C1341.43 322.831 1338.96 321.433 1336.17 320.605C1338.97 319.837 1341.48 318.508 1343.67 316.552Z" fill="white" fill-opacity="0.01"/>
<path d="M976.508 225.612C976.508 225.612 986.601 227.746 990.172 231.071C998.119 238.464 999.342 252.374 999.342 252.374C999.342 252.374 1000.88 238.493 1008.97 231.272C1012.61 228.024 1022.74 226.105 1022.74 226.105C1022.74 226.105 1012.65 223.971 1009.08 220.646C1001.15 213.254 999.909 199.343 999.909 199.343C999.909 199.343 998.372 213.224 990.285 220.445C986.644 223.694 976.508 225.612 976.508 225.612ZM991.358 221.638C996.48 217.065 998.787 210.277 999.844 205.389C1000.8 210.298 1002.96 217.134 1007.98 221.815C1010.13 223.817 1012.62 225.2 1015.39 226.027C1012.59 226.779 1010.08 228.14 1007.89 230.095C1002.77 234.668 1000.46 241.457 999.407 246.344C998.454 241.435 996.293 234.599 991.269 229.918C989.12 227.916 986.646 226.518 983.863 225.69C986.663 224.922 989.167 223.593 991.358 221.638Z" fill="white" fill-opacity="0.01"/>
<path d="M251.094 171.724C251.882 171.756 255.711 171.982 257.159 172.158C271.686 173.96 274.404 182.921 277.091 197.962L278.346 299.521L279.633 198.027C279.697 197.029 281.29 173.606 299.629 173.188C319.143 172.738 358.01 171.708 358.396 171.708C358.155 171.708 305.549 170.373 299.629 170.228C281.29 169.81 278.957 146.451 278.893 145.518L278.362 136.348L277.686 145.518C277.622 146.515 275.45 170.662 257.111 171.081C256.29 171.097 251.094 171.708 251.094 171.708V171.724ZM278.378 190.707C276.64 184.079 272.603 174.845 263.417 171.74C272.603 168.635 276.64 159.401 278.378 152.773C280.115 159.401 284.153 168.635 293.355 171.74C284.169 174.845 280.131 184.079 278.394 190.707H278.378Z" fill="white" fill-opacity="0.01"/>
<path d="M423.227 763.735C424.016 763.767 427.844 763.992 429.292 764.169C443.819 765.971 446.538 774.931 449.224 789.973L450.479 891.532L451.766 790.037C451.831 789.04 453.423 765.617 471.763 765.199C491.276 764.748 530.143 763.719 530.529 763.719C530.288 763.719 477.683 762.383 471.763 762.239C453.423 761.82 451.091 738.462 451.026 737.529L450.495 728.359L449.82 737.529C449.755 738.526 447.584 762.673 429.244 763.091C428.424 763.107 423.227 763.719 423.227 763.719V763.735ZM450.511 782.718C448.774 776.09 444.736 766.856 435.55 763.751C444.736 760.646 448.774 751.412 450.511 744.784C452.249 751.412 456.287 760.646 465.489 763.751C456.303 766.856 452.265 776.09 450.527 782.718H450.511Z" fill="white" fill-opacity="0.01"/>
<path d="M457.011 276.05C457.401 276.066 459.295 276.177 460.011 276.264C467.198 277.152 468.544 281.569 469.873 288.984L470.494 339.048L471.13 289.016C471.162 288.524 471.95 276.978 481.024 276.772C490.678 276.549 509.908 276.042 510.099 276.042C509.979 276.042 483.953 275.384 481.024 275.312C471.95 275.106 470.796 263.592 470.764 263.132L470.501 258.611L470.167 263.132C470.135 263.623 469.061 275.526 459.987 275.733C459.581 275.741 457.011 276.042 457.011 276.042V276.05ZM470.509 285.408C469.65 282.14 467.652 277.588 463.107 276.058C467.652 274.527 469.65 269.975 470.509 266.708C471.369 269.975 473.367 274.527 477.919 276.058C473.375 277.588 471.377 282.14 470.517 285.408H470.509Z" fill="white" fill-opacity="0.01"/>
<path d="M276.834 773.146C277.224 773.162 279.118 773.273 279.834 773.36C287.021 774.248 288.366 778.665 289.696 786.08L290.316 836.144L290.953 786.112C290.985 785.62 291.773 774.074 300.846 773.867C310.501 773.645 329.73 773.138 329.921 773.138C329.802 773.138 303.775 772.48 300.846 772.408C291.773 772.202 290.619 760.687 290.587 760.228L290.324 755.707L289.99 760.228C289.958 760.719 288.884 772.622 279.81 772.829C279.404 772.837 276.834 773.138 276.834 773.138V773.146ZM290.332 782.503C289.473 779.236 287.475 774.684 282.93 773.154C287.475 771.623 289.473 767.071 290.332 763.804C291.192 767.071 293.19 771.623 297.742 773.154C293.198 774.684 291.2 779.236 290.34 782.503H290.332Z" fill="white" fill-opacity="0.01"/>
<path d="M268.79 468.186C268.388 468.202 266.436 468.318 265.698 468.408C258.293 469.332 256.908 473.926 255.538 481.637L254.898 533.703L254.242 481.67C254.21 481.159 253.398 469.151 244.049 468.936C234.102 468.705 214.29 468.177 214.093 468.177C214.216 468.177 241.032 467.493 244.049 467.419C253.398 467.204 254.587 455.229 254.62 454.751L254.89 450.05L255.235 454.751C255.267 455.262 256.374 467.641 265.723 467.856C266.141 467.864 268.79 468.177 268.79 468.177V468.186ZM254.882 477.918C255.768 474.52 257.826 469.786 262.508 468.194C257.826 466.602 255.768 461.868 254.882 458.47C253.996 461.868 251.938 466.602 247.247 468.194C251.93 469.786 253.988 474.52 254.874 477.918H254.882Z" fill="white" fill-opacity="0.01"/>
<path d="M260.809 388.208C261.119 388.211 325.022 390.506 332.212 390.768C354.495 391.502 356.143 420.011 356.193 421.128L356.425 544.583L359.261 421.254C359.336 420.045 361.593 391.609 383.887 391.32C407.607 391.046 454.894 390.28 455.359 390.285C454.894 390.28 407.634 388.536 383.925 387.724C361.642 386.99 359.994 358.481 359.943 357.365L359.743 233.91L356.876 357.239C356.801 358.447 354.544 386.915 332.25 387.173C308.53 387.446 261.274 388.213 260.809 388.208ZM358.299 366.183C360.321 374.265 365.099 385.539 376.249 389.44C365.049 393.103 360.001 404.272 357.807 412.309C355.785 404.227 351.007 392.953 339.857 389.052C351.057 385.389 356.105 374.22 358.299 366.183Z" fill="white" fill-opacity="0.01"/>
<path d="M66.1405 857.956C66.4505 857.959 130.353 860.253 137.543 860.516C159.826 861.25 161.475 889.759 161.525 890.876L161.757 1014.33L164.593 891.001C164.668 889.793 166.925 861.357 189.218 861.068C212.938 860.794 260.225 860.028 260.69 860.033C260.225 860.028 212.965 858.283 189.257 857.472C166.974 856.738 165.325 828.229 165.275 827.112L165.074 703.658L162.207 826.987C162.132 828.195 159.875 856.662 137.581 856.92C113.862 857.194 66.6055 857.961 66.1405 857.956ZM163.631 835.931C165.653 844.013 170.431 855.287 181.581 859.188C170.381 862.851 165.332 874.02 163.138 882.057C161.116 873.975 156.338 862.701 145.188 858.8C156.388 855.137 161.437 843.968 163.631 835.931Z" fill="white" fill-opacity="0.01"/>
<path d="M89.6989 559.823C89.9019 559.826 131.752 561.328 136.461 561.5C151.054 561.981 152.134 580.652 152.166 581.383L152.318 662.234L154.176 581.465C154.225 580.674 155.703 562.051 170.303 561.862C185.837 561.682 216.806 561.181 217.11 561.184C216.806 561.181 185.855 560.038 170.328 559.507C155.735 559.026 154.655 540.355 154.622 539.624L154.491 458.774L152.613 539.542C152.564 540.333 151.086 558.976 136.486 559.145C120.952 559.325 90.0034 559.827 89.6989 559.823ZM153.546 545.399C154.87 550.692 157.999 558.076 165.301 560.631C157.966 563.029 154.66 570.344 153.223 575.608C151.899 570.315 148.77 562.931 141.467 560.376C148.802 557.977 152.109 550.663 153.546 545.399Z" fill="white" fill-opacity="0.01"/>
<path d="M485.129 589.746C485.273 589.747 514.946 590.813 518.285 590.935C528.632 591.275 529.397 604.513 529.42 605.032L529.528 662.357L530.845 605.09C530.88 604.529 531.928 591.325 542.28 591.191C553.294 591.064 575.251 590.708 575.467 590.71C575.251 590.708 553.306 589.898 542.298 589.521C531.951 589.18 531.185 575.942 531.162 575.424L531.068 518.098L529.737 575.365C529.702 575.926 528.654 589.145 518.302 589.265C507.288 589.392 485.345 589.748 485.129 589.746ZM530.398 579.518C531.337 583.271 533.556 588.506 538.733 590.318C533.533 592.019 531.188 597.205 530.169 600.937C529.231 597.184 527.012 591.949 521.834 590.137C527.035 588.437 529.379 583.25 530.398 579.518Z" fill="white" fill-opacity="0.01"/>
<path d="M433.165 517.003C433.165 517.003 443.342 519.155 446.942 522.508C454.955 529.961 456.189 543.987 456.189 543.987C456.189 543.987 457.738 529.991 465.892 522.71C469.563 519.435 479.783 517.501 479.783 517.501C479.783 517.501 469.606 515.349 466.006 511.996C458.01 504.543 456.76 490.516 456.76 490.516C456.76 490.516 455.211 504.513 447.057 511.794C443.386 515.069 433.165 517.003 433.165 517.003ZM448.138 512.996C453.303 508.386 455.629 501.541 456.695 496.613C457.655 501.563 459.834 508.455 464.9 513.175C467.066 515.193 469.577 516.587 472.368 517.422C469.544 518.18 467.02 519.553 464.811 521.524C459.645 526.134 457.32 532.979 456.254 537.907C455.293 532.957 453.114 526.065 448.049 521.345C445.882 519.327 443.388 517.917 440.581 517.082C443.405 516.308 445.929 514.967 448.138 512.996Z" fill="white" fill-opacity="0.01"/>
<path d="M178.847 257.816C178.847 257.816 184.056 258.917 185.898 260.633C189.999 264.447 190.63 271.626 190.63 271.626C190.63 271.626 191.423 264.463 195.596 260.736C197.475 259.06 202.706 258.07 202.706 258.07C202.706 258.07 197.497 256.969 195.655 255.253C191.562 251.439 190.923 244.26 190.923 244.26C190.923 244.26 190.13 251.423 185.957 255.15C184.078 256.826 178.847 257.816 178.847 257.816ZM186.51 255.765C189.154 253.405 190.344 249.902 190.889 247.38C191.381 249.913 192.496 253.441 195.089 255.856C196.197 256.889 197.482 257.603 198.91 258.03C197.465 258.418 196.173 259.12 195.043 260.129C192.399 262.489 191.209 265.992 190.664 268.514C190.172 265.981 189.057 262.453 186.464 260.038C185.356 259.005 184.079 258.283 182.643 257.856C184.088 257.46 185.38 256.774 186.51 255.765Z" fill="white" fill-opacity="0.01"/>
<path d="M-1.32973 754.911C-1.32973 754.911 3.87863 756.013 5.72111 757.728C9.82189 761.543 10.4533 768.722 10.4533 768.722C10.4533 768.722 11.2461 761.558 15.4192 757.832C17.2979 756.156 22.5286 755.166 22.5286 755.166C22.5286 755.166 17.3202 754.065 15.4778 752.349C11.3852 748.534 10.7455 741.356 10.7455 741.356C10.7455 741.356 9.95272 748.519 5.77965 752.246C3.90096 753.922 -1.32973 754.911 -1.32973 754.911ZM6.33297 752.861C8.97646 750.501 10.1666 746.998 10.7122 744.476C11.2039 747.009 12.3189 750.537 14.9114 752.952C16.0202 753.985 17.3052 754.699 18.7333 755.126C17.2883 755.514 15.9964 756.216 14.8658 757.225C12.2223 759.585 11.0322 763.088 10.4866 765.61C9.99489 763.077 8.87985 759.549 6.28735 757.133C5.1786 756.101 3.90186 755.379 2.46554 754.952C3.91065 754.556 5.20242 753.87 6.33297 752.861Z" fill="white" fill-opacity="0.01"/>
<path d="M455.685 135.516C455.685 135.516 465.778 137.65 469.349 140.975C477.296 148.368 478.52 162.279 478.52 162.279C478.52 162.279 480.056 148.397 488.143 141.176C491.784 137.928 501.92 136.01 501.92 136.01C501.92 136.01 491.827 133.875 488.256 130.55C480.325 123.158 479.086 109.247 479.086 109.247C479.086 109.247 477.549 123.128 469.462 130.35C465.822 133.598 455.685 135.516 455.685 135.516ZM470.535 131.542C475.657 126.969 477.964 120.181 479.021 115.293C479.974 120.202 482.135 127.038 487.159 131.719C489.308 133.721 491.798 135.104 494.565 135.931C491.765 136.683 489.261 138.044 487.071 140C481.948 144.572 479.641 151.361 478.584 156.248C477.631 151.339 475.47 144.503 470.446 139.822C468.298 137.821 465.823 136.422 463.04 135.594C465.84 134.827 468.344 133.497 470.535 131.542Z" fill="white" fill-opacity="0.01"/>
<path d="M627.819 727.527C627.819 727.527 637.912 729.661 641.483 732.986C649.429 740.379 650.653 754.289 650.653 754.289C650.653 754.289 652.19 740.408 660.277 733.186C663.917 729.938 674.054 728.02 674.054 728.02C674.054 728.02 663.961 725.886 660.39 722.561C652.459 715.168 651.219 701.257 651.219 701.257C651.219 701.257 649.683 715.139 641.596 722.36C637.955 725.608 627.819 727.527 627.819 727.527ZM642.668 723.552C647.791 718.98 650.097 712.191 651.155 707.304C652.108 712.213 654.269 719.049 659.293 723.73C661.441 725.731 663.932 727.114 666.699 727.942C663.899 728.694 661.395 730.055 659.204 732.01C654.081 736.583 651.775 743.371 650.718 748.259C649.765 743.35 647.604 736.514 642.58 731.833C640.431 729.831 637.957 728.433 635.174 727.605C637.974 726.837 640.477 725.508 642.668 723.552Z" fill="white" fill-opacity="0.01"/>
<path d="M275.508 632.612C275.508 632.612 285.601 634.746 289.172 638.071C297.119 645.464 298.342 659.374 298.342 659.374C298.342 659.374 299.879 645.493 307.966 638.272C311.607 635.024 321.743 633.105 321.743 633.105C321.743 633.105 311.65 630.971 308.079 627.646C300.148 620.254 298.909 606.343 298.909 606.343C298.909 606.343 297.372 620.224 289.285 627.445C285.645 630.694 275.508 632.612 275.508 632.612ZM290.358 628.638C295.48 624.065 297.787 617.277 298.844 612.389C299.797 617.298 301.958 624.134 306.982 628.815C309.13 630.817 311.621 632.2 314.388 633.027C311.588 633.779 309.084 635.14 306.893 637.095C301.771 641.668 299.464 648.457 298.407 653.344C297.454 648.435 295.293 641.599 290.269 636.918C288.12 634.916 285.646 633.518 282.863 632.69C285.663 631.922 288.167 630.593 290.358 628.638Z" fill="white" fill-opacity="0.01"/>
<path d="M-17.7726 -48.2652C-16.9843 -48.233 -13.1555 -48.0078 -11.7077 -47.8308C2.81909 -46.0291 5.53784 -37.0685 8.22441 -22.0269L9.47921 79.5319L10.7662 -21.9625C10.8305 -22.96 12.4232 -46.383 30.7626 -46.8013C50.2765 -47.2517 89.1432 -48.2813 89.5293 -48.2813C89.288 -48.2813 36.6827 -49.6165 30.7626 -49.7613C12.4232 -50.1796 10.0905 -73.5383 10.0262 -74.4713L9.4953 -83.6411L8.81964 -74.4713C8.75529 -73.4739 6.58351 -49.327 -11.756 -48.9087C-12.5764 -48.8926 -17.7726 -48.2813 -17.7726 -48.2813L-17.7726 -48.2652ZM9.51138 -29.2822C7.77396 -35.9102 3.73606 -45.1443 -5.44975 -48.2491C3.73606 -51.3539 7.77396 -60.588 9.51138 -67.216C11.2488 -60.588 15.2867 -51.3539 24.4886 -48.2491C15.3028 -45.1443 11.2649 -35.9102 9.52747 -29.2822H9.51138Z" fill="white" fill-opacity="0.01"/>
<path d="M188.144 56.0606C188.534 56.0765 190.429 56.1875 191.145 56.2747C198.332 57.1629 199.677 61.5801 201.006 68.9948L201.627 119.058L202.264 69.0265C202.296 68.5349 203.084 56.9885 212.157 56.7823C221.812 56.5602 241.041 56.0527 241.232 56.0527C241.113 56.0527 215.086 55.3945 212.157 55.3231C203.084 55.1169 201.93 43.6022 201.898 43.1423L201.635 38.6221L201.301 43.1423C201.269 43.634 200.194 55.5372 191.121 55.7434C190.715 55.7513 188.144 56.0527 188.144 56.0527V56.0606ZM201.643 65.4183C200.783 62.151 198.786 57.5991 194.241 56.0686C198.786 54.538 200.783 49.9861 201.643 46.7188C202.503 49.9861 204.5 54.538 209.053 56.0686C204.508 57.5991 202.511 62.151 201.651 65.4183H201.643Z" fill="white" fill-opacity="0.01"/>
<path d="M-8.0574 168.219C-7.74741 168.222 56.1554 170.516 63.3452 170.779C85.6282 171.513 87.2769 200.022 87.327 201.139L87.5589 324.593L90.3949 201.264C90.4698 200.056 92.7266 171.62 115.021 171.331C138.74 171.057 186.027 170.291 186.492 170.296C186.027 170.291 138.767 168.546 115.059 167.735C92.7759 167.001 91.1272 138.492 91.0771 137.375L90.8762 13.9211L88.0092 137.25C87.9343 138.458 85.6771 166.925 63.3835 167.183C39.6637 167.457 -7.59241 168.224 -8.0574 168.219ZM89.4328 146.194C91.4547 154.276 96.2327 165.55 107.383 169.451C96.1829 173.114 91.1343 184.283 88.9403 192.32C86.9184 184.238 82.1404 172.964 70.9901 169.063C82.1901 165.4 87.2388 154.231 89.4328 146.194Z" fill="white" fill-opacity="0.01"/>
<path d="M392.141 -100.044C392.451 -100.041 456.353 -97.7467 463.543 -97.4839C485.826 -96.7499 487.475 -68.241 487.525 -67.1243L487.757 56.3304L490.593 -66.9986C490.668 -68.2069 492.925 -96.6431 515.218 -96.9321C538.938 -97.2059 586.225 -97.9721 586.69 -97.9671C586.225 -97.9721 538.965 -99.7168 515.257 -100.528C492.974 -101.262 491.325 -129.771 491.275 -130.888L491.074 -254.342L488.207 -131.013C488.132 -129.805 485.875 -101.338 463.581 -101.08C439.862 -100.806 392.606 -100.039 392.141 -100.044ZM489.631 -122.069C491.653 -113.987 496.431 -102.713 507.581 -98.8118C496.381 -95.1491 491.332 -83.9801 489.138 -75.9428C487.116 -84.0251 482.338 -95.299 471.188 -99.2004C482.388 -102.863 487.437 -114.032 489.631 -122.069Z" fill="white" fill-opacity="0.01"/>
<path d="M347.697 22.7525C347.819 22.7538 372.895 23.6542 375.716 23.7573C384.46 24.0453 385.107 35.2325 385.127 35.6707L385.218 84.1154L386.331 35.72C386.36 35.2459 387.246 24.0872 395.994 23.9738C405.302 23.8664 423.858 23.5657 424.04 23.5677C423.858 23.5657 405.312 22.8811 396.009 22.5628C387.265 22.2747 386.618 11.0876 386.598 10.6494L386.52 -37.7952L385.395 10.6001C385.365 11.0742 384.479 22.245 375.731 22.3462C366.423 22.4537 347.88 22.7545 347.697 22.7525ZM385.953 14.1097C386.747 17.2813 388.622 21.7053 392.997 23.2362C388.602 24.6735 386.621 29.0563 385.76 32.2102C384.967 29.0387 383.092 24.6147 378.716 23.0837C383.111 21.6464 385.092 17.2636 385.953 14.1097Z" fill="white" fill-opacity="0.01"/>
<path d="M630.952 128.841C631.096 128.843 660.769 129.908 664.107 130.03C674.454 130.371 675.22 143.609 675.243 144.128L675.351 201.453L676.668 144.186C676.703 143.625 677.751 130.421 688.103 130.287C699.117 130.159 721.074 129.804 721.29 129.806C721.074 129.804 699.129 128.994 688.12 128.617C677.773 128.276 677.008 115.038 676.985 114.52L676.891 57.1942L675.56 114.461C675.525 115.022 674.477 128.241 664.125 128.361C653.111 128.488 631.168 128.844 630.952 128.841ZM676.221 118.614C677.16 122.367 679.379 127.602 684.556 129.414C679.356 131.115 677.011 136.301 675.992 140.033C675.054 136.28 672.835 131.045 667.657 129.233C672.858 127.533 675.202 122.346 676.221 118.614Z" fill="white" fill-opacity="0.01"/>
<path d="M578.988 56.099C578.988 56.099 589.165 58.2509 592.765 61.6035C600.778 69.0574 602.012 83.0834 602.012 83.0834C602.012 83.0834 603.561 69.0871 611.715 61.8058C615.386 58.5309 625.606 56.5968 625.606 56.5968C625.606 56.5968 615.429 54.4449 611.829 51.0923C603.832 43.6386 602.583 29.6124 602.583 29.6124C602.583 29.6124 601.033 43.6087 592.879 50.89C589.209 54.165 578.988 56.099 578.988 56.099ZM593.961 52.0921C599.126 47.4816 601.451 40.6368 602.517 35.7091C603.478 40.6585 605.657 47.5514 610.723 52.271C612.889 54.2891 615.4 55.6834 618.19 56.5176C615.367 57.2758 612.842 58.6485 610.633 60.6198C605.468 65.2303 603.143 72.0751 602.077 77.0028C601.116 72.0534 598.937 65.1605 593.871 60.4409C591.705 58.4228 589.21 57.0126 586.404 56.1782C589.227 55.4039 591.752 54.0634 593.961 52.0921Z" fill="white" fill-opacity="0.01"/>
<path d="M49.176 412.483C49.176 412.483 55.4501 413.809 57.6696 415.876C62.6095 420.471 63.3702 429.119 63.3702 429.119C63.3702 429.119 64.3252 420.49 69.3522 416.001C71.6153 413.982 77.9164 412.789 77.9164 412.789C77.9164 412.789 71.6422 411.463 69.4227 409.396C64.4927 404.801 63.7222 396.153 63.7222 396.153C63.7222 396.153 62.7671 404.782 57.7401 409.271C55.477 411.29 49.176 412.483 49.176 412.483ZM58.4067 410.012C61.5911 407.17 63.0247 402.95 63.682 399.912C64.2743 402.963 65.6175 407.213 68.7405 410.123C70.0761 411.367 71.6242 412.226 73.3445 412.741C71.6038 413.208 70.0474 414.054 68.6856 415.27C65.5011 418.112 64.0675 422.332 63.4102 425.37C62.8179 422.319 61.4747 418.069 58.3517 415.159C57.0161 413.915 55.4781 413.046 53.7479 412.531C55.4887 412.054 57.0448 411.228 58.4067 410.012Z" fill="white" fill-opacity="0.01"/>
<path d="M1275.84 758.59C1276 758.591 1308.33 759.752 1311.96 759.885C1323.24 760.256 1324.07 774.68 1324.1 775.245L1324.21 837.705L1325.65 775.309C1325.69 774.697 1326.83 760.311 1338.11 760.164C1350.11 760.026 1374.03 759.638 1374.27 759.641C1374.03 759.638 1350.12 758.755 1338.13 758.345C1326.85 757.974 1326.02 743.55 1325.99 742.985L1325.89 680.526L1324.44 742.921C1324.4 743.533 1323.26 757.935 1311.98 758.066C1299.98 758.204 1276.07 758.592 1275.84 758.59ZM1325.16 747.447C1326.19 751.536 1328.6 757.239 1334.24 759.213C1328.58 761.066 1326.02 766.717 1324.91 770.783C1323.89 766.694 1321.47 760.991 1315.83 759.017C1321.5 757.164 1324.05 751.513 1325.16 747.447Z" fill="white" fill-opacity="0.01"/>
<path d="M1290.58 61.5367C1290.87 61.5398 1351.56 63.7191 1358.39 63.9687C1379.56 64.6658 1381.12 91.7433 1381.17 92.8039L1381.39 210.06L1384.08 92.9233C1384.16 91.7757 1386.3 64.7672 1407.47 64.4927C1430 64.2327 1474.92 63.505 1475.36 63.5097C1474.92 63.505 1430.03 61.8479 1407.51 61.0774C1386.35 60.3803 1384.78 33.3028 1384.73 32.2422L1384.54 -85.0135L1381.82 32.1228C1381.75 33.2704 1379.6 60.3083 1358.43 60.5533C1335.9 60.8134 1291.02 61.5414 1290.58 61.5367ZM1383.17 40.6176C1385.09 48.2941 1389.63 59.0019 1400.22 62.7074C1389.58 66.1862 1384.79 76.7945 1382.7 84.4282C1380.78 76.7517 1376.24 66.0438 1365.65 62.3383C1376.29 58.8595 1381.09 48.2513 1383.17 40.6176Z" fill="white" fill-opacity="0.01"/>
</g>
<defs>
<filter id="filter0_n_7_241" x="0" y="0" width="1440" height="816" filterUnits="userSpaceOnUse" color-interpolation-filters="sRGB">
<feFlood flood-opacity="0" result="BackgroundImageFix"/>
<feBlend mode="normal" in="SourceGraphic" in2="BackgroundImageFix" result="shape"/>
<feTurbulence type="fractalNoise" baseFrequency="5 5" stitchTiles="stitch" numOctaves="3" result="noise" seed="9675" />
<feColorMatrix in="noise" type="luminanceToAlpha" result="alphaNoise" />
<feComponentTransfer in="alphaNoise" result="coloredNoise1">
<feFuncA type="discrete" tableValues="1 1 1 1 1 1 1 1 1 1 1 1 1 1 1 1 1 1 1 1 1 1 1 1 1 1 1 1 1 1 1 1 1 1 1 1 1 1 1 1 1 1 1 1 1 1 1 1 1 1 1 0 0 0 0 0 0 0 0 0 0 0 0 0 0 0 0 0 0 0 0 0 0 0 0 0 0 0 0 0 0 0 0 0 0 0 0 0 0 0 0 0 0 0 0 0 0 0 0 0 "/>
</feComponentTransfer>
<feComposite operator="in" in2="shape" in="coloredNoise1" result="noise1Clipped" />
<feFlood flood-color="rgba(0, 0, 0, 0.1)" result="color1Flood" />
<feComposite operator="in" in2="noise1Clipped" in="color1Flood" result="color1" />
<feMerge result="effect1_noise_7_241">
<feMergeNode in="shape" />
<feMergeNode in="color1" />
</feMerge>
</filter>
<clipPath id="clip0_7_241">
<rect width="1440" height="816" fill="white"/>
</clipPath>
<clipPath id="clip1_7_241">
<rect width="358" height="457" fill="white" transform="translate(958 179)"/>
</clipPath>
</defs>
</svg>
