<?xml version="1.0" encoding="UTF-8"?>
<svg id="Layer_2" data-name="Layer 2" xmlns="http://www.w3.org/2000/svg" viewBox="0 0 128.4 164.09">
  <defs>
    <style>
      .cls-1 {
        fill: #fff;
      }
    </style>
  </defs>
  <g id="Layer_4" data-name="Layer 4">
    <g>
      <path class="cls-1" d="M30.87,100.02s5-5.22,10.58,4.66c4.9,8.68,1.07,15.43,1.07,15.43-5.58,13.14-28.77-6.11-30.97,15.26.11.64.18,1.45.29,2.1,1.24,7.52,3.58,17.44,12.66,20.64,2.54.89,5.17,1.24,7.75.82,4.17-.69,8.01-3.06,10.12-6.58.75-1.25,2.67-.87,2.9.58h0c.08.47-.05.96-.37,1.31-2.47,2.65-6.61,4.69-10,5.35l-.43.07c-8.05,1.33-16.85-.02-22.84-4.27-4.85-3.45-9.88-9.18-10.99-15.95l-.49-2.96c-.86-6.59,2.29-14.38,5.55-19.15,1.7-2.48,6.85-7.7,12.62-7.29,3.42-.09,6.77,2.66,8.6,4.77,2.59,2.99,4.83,3.94,7.91,4.35,3.76.5,7.61-.94,7.98-4.71.02-.22.03-.44.03-.67,0-.78-.15-2.24-.45-3.67-.45-2.1-2.25-3.63-4.39-3.77-3.79-.25-9.12-2.69-7.12-6.35Z"/>
      <path class="cls-1" d="M51.52,97.06c-2.88-3.84-6.01-5.53-9.37-5.53-3.64,0-7.29,2.1-11.1,5.97-.64.65-1.73.32-1.91-.58-.32-1.61-.44-3.14-.44-4.67,0-5.28,1.92-9.61,5.77-14.41l49.01-61.26c2.64-3.36,4.08-6.01,4.08-8.17,0-3.66-4.14-5.58-10.97-6.17-.58-.05-1.04-.53-1.04-1.12h0c0-.62.5-1.12,1.12-1.12h41.72c.62,0,1.12.5,1.12,1.12v1.04h-1.2c-12.97,0-23.3,4.08-31.95,14.42l-49.25,61.74c-4.08,5.04-6.97,10.09-6.97,16.58v2.16c2.64-6.49,7.21-10.33,12.01-12.73,2.16-.96,4.57-1.44,6.73-1.44,5.53,0,11.05,2.64,15.86,8.89,14.17,18.5,29.55,38.44,44.44,57.42,7.21,8.65,13.93,14.65,19.22,14.89h-2.16c-11.52,0-24.71-3.35-32.4-12.22-.02-.02-.04-.05-.06-.07l-42.26-54.74Z"/>
      <path class="cls-1" d="M30,17.2s-6.57-1.32-8.9-3.45C15.9,9.02,15,0,15,0c0,0-.9,9.02-6.1,13.76-2.34,2.13-8.9,3.45-8.9,3.45,0,0,6.57,1.32,8.9,3.45,5.2,4.74,6.1,13.76,6.1,13.76,0,0,.9-9.02,6.1-13.76,2.34-2.13,8.9-3.45,8.9-3.45ZM20.39,19.89c-3.29,3-4.75,7.42-5.4,10.6-.65-3.18-2.11-7.6-5.39-10.6-1.41-1.28-3.03-2.17-4.84-2.68,1.81-.51,3.43-1.41,4.84-2.69,3.29-3,4.75-7.42,5.4-10.6.65,3.18,2.11,7.6,5.4,10.6,1.41,1.28,3.02,2.17,4.83,2.69-1.81.51-3.43,1.4-4.83,2.68Z"/>
    </g>
  </g>
</svg>